Coordinates
version=1
nRows=13
nColumns=63
inDegrees=yes

Units are S.I. units (second, meters, Newtons, ...)
If the header above contains a line with 'inDegrees', this indicates whether rotational values are in degrees (yes) or radians (no).

endheader
time	pelvis_tilt	pelvis_list	pelvis_rotation	pelvis_tx	pelvis_ty	pelvis_tz	hip_flexion_r	hip_adduction_r	hip_rotation_r	knee_angle_r	knee_angle_r_beta	ankle_angle_r	subtalar_angle_r	mtp_angle_r	hip_flexion_l	hip_adduction_l	hip_rotation_l	knee_angle_l	knee_angle_l_beta	ankle_angle_l	subtalar_angle_l	mtp_angle_l	L5_S1_Flex_Ext	L5_S1_Lat_Bending	L5_S1_axial_rotation	L4_L5_Flex_Ext	L4_L5_Lat_Bending	L4_L5_axial_rotation	L3_L4_Flex_Ext	L3_L4_Lat_Bending	L3_L4_axial_rotation	L2_L3_Flex_Ext	L2_L3_Lat_Bending	L2_L3_axial_rotation	L1_L2_Flex_Ext	L1_L2_Lat_Bending	L1_L2_axial_rotation	L1_T12_Flex_Ext	L1_T12_Lat_Bending	L1_T12_axial_rotation	Abs_r3	Abs_r2	Abs_r1	Abs_t1	Abs_t2	neck_flexion	neck_bending	neck_rotation	arm_flex_r	arm_add_r	arm_rot_r	elbow_flex_r	pro_sup_r	wrist_flex_r	wrist_dev_r	arm_flex_l	arm_add_l	arm_rot_l	elbow_flex_l	pro_sup_l	wrist_flex_l	wrist_dev_l
5.893617	-0.286569	-3.555676	99.909712	0.277370	0.944104	0.650521	-4.663147	2.665134	-2.850610	7.375276	0.128723	31.301947	-1.010348	0.000000	-3.303576	-4.277657	1.230688	7.416215	0.129437	35.500028	10.116316	0.000000	-0.067232	0.052206	0.991137	-0.124857	0.069434	1.053083	-0.110456	0.126933	1.053083	-0.076840	0.126933	0.867245	-0.062432	0.106458	0.805299	-0.038417	0.080867	0.743353	-0.480234	0.590561	5.512405	0.000000	0.000000	8.097308	3.439307	-12.470117	-6.511887	-4.734754	8.468609	105.521931	84.053831	-3.091445	14.638500	2.992616	-15.909821	23.884893	92.976710	80.700587	-6.422137	3.948018
5.914894	-0.151255	-3.231858	101.540768	0.275253	0.944268	0.648417	-4.520448	3.080986	-5.445903	8.328940	0.145367	31.936267	-1.141681	0.000000	-4.052834	-4.570632	4.316105	6.383335	0.111410	35.421898	9.080685	0.000000	-0.073106	0.075043	0.627463	-0.135765	0.099807	0.666679	-0.120105	0.182460	0.666679	-0.083553	0.182460	0.549030	-0.067886	0.153028	0.509813	-0.041773	0.116242	0.470597	-0.522187	0.848902	3.489759	0.000000	0.000000	7.527488	3.221442	-11.914301	-6.458354	-4.789864	10.238533	102.698301	87.103723	-1.278150	14.948707	2.188319	-15.324630	25.638534	93.400441	81.386109	-4.771289	4.790697
5.936170	0.004460	-2.967320	102.985135	0.273420	0.944164	0.646681	-4.313998	3.480384	-7.747974	9.197296	0.160523	32.524490	-1.424208	0.000000	-4.723437	-4.905607	7.453087	5.407375	0.094377	35.307790	7.717422	0.000000	-0.078176	0.099519	0.296610	-0.145180	0.132361	0.315148	-0.128435	0.241971	0.315148	-0.089347	0.241971	0.259534	-0.072594	0.202940	0.240996	-0.044670	0.154156	0.222458	-0.558402	1.125783	1.649657	0.000000	0.000000	6.982482	3.006718	-11.333225	-6.572698	-4.952178	11.701110	100.039034	88.911730	0.620821	15.515427	1.474600	-14.666885	27.338916	93.493658	82.521291	-2.810181	6.328222
5.957447	0.181953	-2.745283	104.204621	0.271896	0.943824	0.645326	-4.090882	3.849699	-9.812343	9.939960	0.173485	33.051213	-1.690489	0.000000	-5.340929	-5.276952	10.558958	4.492301	0.078405	35.122545	6.027419	0.000000	-0.083990	0.126558	0.001963	-0.155978	0.168322	0.002085	-0.137987	0.307713	0.002085	-0.095992	0.307713	0.001717	-0.077993	0.258077	0.001595	-0.047992	0.196038	0.001472	-0.599932	1.431647	0.010916	0.000000	0.000000	6.449214	2.799554	-10.695961	-6.821587	-5.259536	12.961293	97.586480	89.635182	2.494492	16.111179	0.922195	-13.979771	29.062029	93.248191	82.959449	-1.105251	8.386364
5.978723	0.375865	-2.558900	105.202691	0.270683	0.943285	0.644361	-3.888696	4.188345	-11.549596	10.514296	0.183509	33.469949	-2.014196	0.000000	-5.908602	-5.668568	13.596347	3.645920	0.063633	34.840530	4.028742	0.000000	-0.090657	0.155505	-0.256378	-0.168359	0.206822	-0.272402	-0.148941	0.378096	-0.272402	-0.103612	0.378096	-0.224331	-0.084184	0.317107	-0.208307	-0.051801	0.240878	-0.192284	-0.647555	1.759109	-1.425898	0.000000	0.000000	5.931315	2.598802	-10.033940	-7.213031	-5.693990	14.061856	95.388990	89.560048	4.289728	16.636095	0.555452	-13.291226	30.759452	92.659363	82.649934	0.374319	10.868884
6.000000	0.571773	-2.410685	105.938066	0.269825	0.942589	0.643771	-3.725184	4.477010	-12.908490	10.914111	0.190487	33.768832	-2.361440	0.000000	-6.432773	-6.050607	16.435342	2.877298	0.050218	34.442583	1.796304	0.000000	-0.097777	0.184560	-0.468683	-0.181581	0.245464	-0.497975	-0.160637	0.448738	-0.497975	-0.111749	0.448738	-0.410097	-0.090795	0.376354	-0.380805	-0.055870	0.285883	-0.351512	-0.698409	2.087775	-2.606672	0.000000	0.000000	5.453162	2.409259	-9.367078	-7.733226	-6.236866	15.063780	93.468094	89.071862	5.849433	16.967246	0.385419	-12.652926	32.428242	91.776262	81.566023	1.589263	13.548602
6.021277	0.787325	-2.306129	106.514996	0.269260	0.941774	0.643565	-3.601022	4.758497	-13.955884	11.136994	0.194377	33.921957	-2.747252	0.000000	-6.874836	-6.448414	19.060966	2.208665	0.038548	33.933702	-0.542583	0.000000	-0.103425	0.214946	-0.651562	-0.192071	0.285879	-0.692285	-0.169918	0.522621	-0.692285	-0.118205	0.522621	-0.570117	-0.096041	0.438319	-0.529394	-0.059097	0.332952	-0.488672	-0.738757	2.431517	-3.623794	0.000000	0.000000	5.054093	2.223955	-8.702999	-8.337670	-6.829730	15.939104	91.818745	88.678775	7.170962	17.092273	0.407428	-12.123713	34.039438	90.681793	79.763533	2.598874	16.314638
6.042553	1.002282	-2.244777	106.882303	0.269031	0.940903	0.643696	-3.519788	5.009896	-14.718947	11.219708	0.195821	33.949147	-3.019147	0.000000	-7.250950	-6.826652	21.335726	1.647746	0.028759	33.296518	-2.890429	0.000000	-0.108316	0.244083	-0.791755	-0.201154	0.324630	-0.841240	-0.177953	0.593463	-0.841240	-0.123795	0.593463	-0.692786	-0.100583	0.497733	-0.643301	-0.061892	0.378084	-0.593816	-0.773693	2.761112	-4.403505	0.000000	0.000000	4.764735	2.053710	-8.078734	-8.965721	-7.420008	16.684052	90.449274	88.684606	8.152980	17.099143	0.589752	-11.757870	35.587743	89.494512	77.474928	3.304508	18.966200
6.063830	1.210123	-2.233393	107.027525	0.269140	0.940013	0.644134	-3.458438	5.213187	-15.490369	11.218410	0.195798	33.929792	-2.740780	0.000000	-7.553829	-7.168904	23.172263	1.204480	0.021022	32.543758	-5.139490	0.000000	-0.111589	0.270583	-0.880911	-0.207232	0.359876	-0.935968	-0.183330	0.657896	-0.935968	-0.127535	0.657896	-0.770797	-0.103622	0.551773	-0.715740	-0.063762	0.419133	-0.660683	-0.797071	3.060890	-4.899364	0.000000	0.000000	4.621564	1.885646	-7.550143	-9.566764	-7.963142	17.305954	89.358416	88.912014	8.780289	17.078377	0.908328	-11.589610	37.093556	88.340479	74.888564	3.609636	21.376808
6.085106	1.386701	-2.259167	106.967000	0.269559	0.939138	0.644777	-3.457713	5.357745	-15.995266	11.108356	0.193877	33.781066	-2.297099	0.000000	-7.802283	-7.447985	24.517733	0.880802	0.015373	31.708117	-7.166959	0.000000	-0.114462	0.291100	-0.916218	-0.212567	0.387164	-0.973482	-0.188049	0.707782	-0.973482	-0.130818	0.707782	-0.801691	-0.106289	0.593612	-0.744427	-0.065403	0.450915	-0.687164	-0.817589	3.292987	-5.095730	0.000000	0.000000	4.625024	1.737330	-7.201266	-10.104094	-8.396027	17.811706	88.514296	89.006600	9.049091	17.120821	1.321169	-11.620780	38.547928	87.324083	72.109757	3.438256	23.412593
6.106383	1.552003	-2.333894	106.779513	0.270169	0.938287	0.645647	-3.480154	5.447620	-16.875186	10.939833	0.190936	33.662017	-0.901390	0.000000	-7.956427	-7.683225	25.413448	0.686664	0.011985	30.847893	-8.874113	0.000000	-0.114942	0.308400	-0.909525	-0.213458	0.410171	-0.966370	-0.188838	0.749843	-0.966370	-0.131367	0.749843	-0.795834	-0.106735	0.628888	-0.738989	-0.065678	0.477711	-0.682144	-0.821017	3.488677	-5.058504	0.000000	0.000000	4.803988	1.598608	-6.996210	-10.519373	-8.690757	18.172805	87.856950	89.341907	9.142395	17.140750	1.794532	-11.783254	39.876553	86.481888	69.311182	2.916586	25.084717
6.127660	1.688412	-2.447664	106.327397	0.271121	0.937446	0.646631	-3.558396	5.497097	-17.201706	10.657441	0.186007	33.396044	0.385344	0.000000	-8.061542	-7.849689	25.689039	0.595235	0.010389	29.997732	-10.170936	0.000000	-0.113620	0.319936	-0.829182	-0.211003	0.425515	-0.881006	-0.186666	0.777894	-0.881006	-0.129856	0.777894	-0.725534	-0.105507	0.652414	-0.673711	-0.064922	0.495582	-0.621887	-0.811575	3.619185	-4.611663	0.000000	0.000000	5.130580	1.494403	-7.007597	-10.770915	-8.845886	18.445575	87.367867	89.345115	8.843583	17.261592	2.355939	-12.049103	41.138300	85.840617	66.353044	1.962439	26.250694
6.148936	1.761453	-2.584505	105.805220	0.272173	0.936617	0.647697	-3.736338	5.470390	-17.271616	10.230995	0.178565	33.000928	1.638934	0.000000	-8.111231	-7.912036	25.710690	0.596868	0.010417	29.149727	-11.242858	0.000000	-0.112612	0.322864	-0.729417	-0.209132	0.429409	-0.775006	-0.185011	0.785011	-0.775006	-0.128704	0.785011	-0.638240	-0.104572	0.658383	-0.592652	-0.064347	0.500116	-0.547063	-0.804377	3.652298	-4.056800	0.000000	0.000000	5.576013	1.436745	-7.099640	-10.775254	-8.836586	18.678999	86.948042	88.877118	8.489771	17.517166	2.863753	-12.369537	42.131664	85.470193	63.227610	0.592010	26.875953
